Oswald--200.ufo
<glyph name="exclam" format="1">
  <advance width="404"/>
  <unicode hex="0021"/>
  <outline>
    <contour>
      <point x="139" y="0" type="line"/>
      <point x="262" y="0" type="line"/>
      <point x="262" y="151" type="line"/>
      <point x="139" y="151" type="line"/>
    </contour>
    <contour>
      <point x="182" y="356" type="line"/>
      <point x="221" y="356" type="line"/>
      <point x="265" y="1658" type="line"/>
      <point x="141" y="1658" type="line"/>
    </contour>
  </outline>
</glyph>
<glyph name="dollar" format="1">
  <advance width="923"/>
  <unicode hex="0024"/>
  <outline>
    <contour>
      <point x="476" y="-192" type="line"/>
      <point x="535" y="-192" type="line"/>
      <point x="535" y="-19" type="line"/>
      <point x="726" y="-2"/>
      <point x="857" y="115"/>
      <point x="857" y="344" type="curve" smooth="yes"/>
      <point x="857" y="521"/>
      <point x="743" y="668"/>
      <point x="611" y="799" type="curve" smooth="yes"/>
      <point x="312" y="1094" type="line" smooth="yes"/>
      <point x="221" y="1186"/>
      <point x="190" y="1261"/>
      <point x="190" y="1345" type="curve" smooth="yes"/>
      <point x="190" y="1514"/>
      <point x="303" y="1585"/>
      <point x="455" y="1587" type="curve" smooth="yes"/>
      <point x="653" y="1591"/>
      <point x="724" y="1472"/>
      <point x="744" y="1239" type="curve"/>
      <point x="838" y="1261" type="line"/>
      <point x="820" y="1559"/>
      <point x="693" y="1666"/>
      <point x="487" y="1676" type="curve"/>
      <point x="487" y="1870" type="line"/>
      <point x="426" y="1870" type="line"/>
      <point x="426" y="1676" type="line"/>
      <point x="224" y="1667"/>
      <point x="89" y="1549"/>
      <point x="89" y="1337" type="curve" smooth="yes"/>
      <point x="89" y="1229"/>
      <point x="131" y="1124"/>
      <point x="233" y="1022" type="curve" smooth="yes"/>
      <point x="536" y="720" type="line" smooth="yes"/>
      <point x="672" y="585"/>
      <point x="752" y="483"/>
      <point x="752" y="338" type="curve" smooth="yes"/>
      <point x="752" y="148"/>
      <point x="652" y="71"/>
      <point x="487" y="71" type="curve" smooth="yes"/>
      <point x="271" y="71"/>
      <point x="211" y="221"/>
      <point x="183" y="440" type="curve"/>
      <point x="85" y="409" type="line"/>
      <point x="106" y="151"/>
      <point x="220" y="-17"/>
      <point x="476" y="-21" type="curve"/>
    </contour>
  </outline>
</glyph>
<glyph name="asterisk" format="1">
  <advance width="730"/>
  <unicode hex="002A"/>
  <outline>
    <contour>
      <point x="205" y="1008" type="line"/>
      <point x="372" y="1269" type="line"/>
      <point x="541" y="1008" type="line"/>
      <point x="610" y="1049" type="line"/>
      <point x="422" y="1298" type="line"/>
      <point x="685" y="1405" type="line"/>
      <point x="656" y="1476" type="line"/>
      <point x="403" y="1353" type="line"/>
      <point x="419" y="1657" type="line"/>
      <point x="332" y="1657" type="line"/>
      <point x="345" y="1353" type="line"/>
      <point x="89" y="1476" type="line"/>
      <point x="60" y="1405" type="line"/>
      <point x="324" y="1298" type="line"/>
      <point x="136" y="1052" type="line"/>
    </contour>
  </outline>
</glyph>
<glyph name="less" format="1">
  <advance width="732"/>
  <unicode hex="003C"/>
  <outline>
    <contour>
      <point x="615" y="157" type="line"/>
      <point x="615" y="272" type="line"/>
      <point x="145" y="630" type="line"/>
      <point x="615" y="1003" type="line"/>
      <point x="615" y="1120" type="line"/>
      <point x="59" y="683" type="line"/>
      <point x="59" y="577" type="line"/>
    </contour>
  </outline>
</glyph>
<glyph name="A" format="1">
  <advance width="959"/>
  <unicode hex="0041"/>
  <outline>
    <contour>
      <point x="66" y="0" type="line"/>
      <point x="176" y="0" type="line"/>
      <point x="265" y="458" type="line"/>
      <point x="695" y="458" type="line"/>
      <point x="781" y="0" type="line"/>
      <point x="893" y="0" type="line"/>
      <point x="542" y="1658" type="line"/>
      <point x="414" y="1658" type="line"/>
    </contour>
    <contour>
      <point x="281" y="541" type="line"/>
      <point x="479" y="1523" type="line"/>
      <point x="679" y="541" type="line"/>
    </contour>
  </outline>
</glyph>
<glyph name="F" format="1">
  <advance width="784"/>
  <unicode hex="0046"/>
  <outline>
    <contour>
      <point x="153" y="0" type="line"/>
      <point x="265" y="0" type="line"/>
      <point x="265" y="817" type="line"/>
      <point x="662" y="817" type="line"/>
      <point x="662" y="904" type="line"/>
      <point x="265" y="904" type="line"/>
      <point x="265" y="1570" type="line"/>
      <point x="724" y="1570" type="line"/>
      <point x="724" y="1658" type="line"/>
      <point x="153" y="1658" type="line"/>
    </contour>
  </outline>
</glyph>
<glyph name="Z" format="1">
  <advance width="822"/>
  <unicode hex="005A"/>
  <outline>
    <contour>
      <point x="64" y="0" type="line"/>
      <point x="783" y="0" type="line"/>
      <point x="783" y="88" type="line"/>
      <point x="178" y="88" type="line"/>
      <point x="780" y="1589" type="line"/>
      <point x="780" y="1658" type="line"/>
      <point x="117" y="1658" type="line"/>
      <point x="117" y="1570" type="line"/>
      <point x="660" y="1570" type="line"/>
      <point x="64" y="88" type="line"/>
    </contour>
  </outline>
</glyph>
<glyph name="bracketleft" format="1">
  <advance width="571"/>
  <unicode hex="005B"/>
  <outline>
    <contour>
      <point x="152" y="-297" type="line"/>
      <point x="453" y="-297" type="line"/>
      <point x="453" y="-229" type="line"/>
      <point x="262" y="-229" type="line"/>
      <point x="262" y="1592" type="line"/>
      <point x="453" y="1592" type="line"/>
      <point x="453" y="1658" type="line"/>
      <point x="152" y="1658" type="line"/>
    </contour>
  </outline>
</glyph>
<glyph name="backslash" format="1">
  <advance width="674"/>
  <unicode hex="005C"/>
  <outline>
    <contour>
      <point x="531" y="0" type="line"/>
      <point x="629" y="0" type="line"/>
      <point x="141" y="1658" type="line"/>
      <point x="44" y="1658" type="line"/>
    </contour>
  </outline>
</glyph>
<glyph name="b" format="1">
  <advance width="814"/>
  <unicode hex="0062"/>
  <outline>
    <contour>
      <point x="442" y="-19" type="curve" smooth="yes"/>
      <point x="655" y="-19"/>
      <point x="720" y="156"/>
      <point x="720" y="487" type="curve" smooth="yes"/>
      <point x="720" y="714" type="line" smooth="yes"/>
      <point x="720" y="1011"/>
      <point x="671" y="1203"/>
      <point x="453" y="1203" type="curve" smooth="yes"/>
      <point x="344" y="1203"/>
      <point x="269" y="1140"/>
      <point x="226" y="1084" type="curve"/>
      <point x="226" y="1658" type="line"/>
      <point x="117" y="1658" type="line"/>
      <point x="117" y="0" type="line"/>
      <point x="226" y="0" type="line"/>
      <point x="226" y="98" type="line"/>
      <point x="268" y="45"/>
      <point x="339" y="-19"/>
    </contour>
    <contour>
      <point x="429" y="66" type="curve" smooth="yes"/>
      <point x="343" y="66"/>
      <point x="272" y="117"/>
      <point x="226" y="173" type="curve"/>
      <point x="226" y="1008" type="line"/>
      <point x="268" y="1054"/>
      <point x="341" y="1118"/>
      <point x="431" y="1118" type="curve" smooth="yes"/>
      <point x="583" y="1118"/>
      <point x="611" y="997"/>
      <point x="611" y="715" type="curve" smooth="yes"/>
      <point x="611" y="484" type="line" smooth="yes"/>
      <point x="611" y="195"/>
      <point x="577" y="66"/>
    </contour>
  </outline>
</glyph>
<glyph name="c" format="1">
  <advance width="768"/>
  <unicode hex="0063"/>
  <outline>
    <contour>
      <point x="393" y="-19" type="curve" smooth="yes"/>
      <point x="652" y="-19"/>
      <point x="682" y="162"/>
      <point x="682" y="399" type="curve" smooth="yes"/>
      <point x="682" y="443" type="line"/>
      <point x="580" y="443" type="line"/>
      <point x="580" y="397" type="line" smooth="yes"/>
      <point x="580" y="162"/>
      <point x="554" y="63"/>
      <point x="395" y="63" type="curve" smooth="yes"/>
      <point x="239" y="63"/>
      <point x="203" y="171"/>
      <point x="203" y="429" type="curve" smooth="yes"/>
      <point x="203" y="736" type="line" smooth="yes"/>
      <point x="203" y="1016"/>
      <point x="233" y="1121"/>
      <point x="394" y="1121" type="curve" smooth="yes"/>
      <point x="524" y="1121"/>
      <point x="580" y="1058"/>
      <point x="580" y="819" type="curve" smooth="yes"/>
      <point x="580" y="772" type="line"/>
      <point x="682" y="772" type="line"/>
      <point x="682" y="820" type="line" smooth="yes"/>
      <point x="682" y="1037"/>
      <point x="639" y="1203"/>
      <point x="393" y="1203" type="curve" smooth="yes"/>
      <point x="162" y="1203"/>
      <point x="94" y="1071"/>
      <point x="94" y="723" type="curve" smooth="yes"/>
      <point x="94" y="445" type="line" smooth="yes"/>
      <point x="94" y="187"/>
      <point x="127" y="-19"/>
    </contour>
  </outline>
</glyph>
<glyph name="j" format="1">
  <advance width="414"/>
  <unicode hex="006A"/>
  <outline>
    <contour>
      <point x="-32" y="-313" type="line"/>
      <point x="-24" y="-316"/>
      <point x="19" y="-317"/>
      <point x="29" y="-317" type="curve" smooth="yes"/>
      <point x="182" y="-317"/>
      <point x="274" y="-248"/>
      <point x="274" y="-58" type="curve" smooth="yes"/>
      <point x="274" y="1184" type="line"/>
      <point x="165" y="1184" type="line"/>
      <point x="165" y="-51" type="line" smooth="yes"/>
      <point x="165" y="-138"/>
      <point x="159" y="-228"/>
      <point x="16" y="-228" type="curve" smooth="yes"/>
      <point x="11" y="-228"/>
      <point x="-28" y="-227"/>
      <point x="-32" y="-226" type="curve"/>
    </contour>
    <contour>
      <point x="165" y="1339" type="line"/>
      <point x="275" y="1339" type="line"/>
      <point x="275" y="1528" type="line"/>
      <point x="165" y="1528" type="line"/>
    </contour>
  </outline>
</glyph>
<glyph name="m" format="1">
  <advance width="1275"/>
  <unicode hex="006D"/>
  <outline>
    <contour>
      <point x="116" y="0" type="line"/>
      <point x="220" y="0" type="line"/>
      <point x="220" y="990" type="line"/>
      <point x="292" y="1072"/>
      <point x="380" y="1127"/>
      <point x="463" y="1127" type="curve" smooth="yes"/>
      <point x="534" y="1127"/>
      <point x="589" y="1092"/>
      <point x="589" y="939" type="curve" smooth="yes"/>
      <point x="589" y="0" type="line"/>
      <point x="694" y="0" type="line"/>
      <point x="694" y="936" type="line" smooth="yes"/>
      <point x="694" y="955"/>
      <point x="693" y="972"/>
      <point x="691" y="988" type="curve"/>
      <point x="763" y="1071"/>
      <point x="852" y="1127"/>
      <point x="936" y="1127" type="curve" smooth="yes"/>
      <point x="1007" y="1127"/>
      <point x="1062" y="1092"/>
      <point x="1062" y="939" type="curve" smooth="yes"/>
      <point x="1062" y="0" type="line"/>
      <point x="1167" y="0" type="line"/>
      <point x="1167" y="936" type="line" smooth="yes"/>
      <point x="1167" y="1148"/>
      <point x="1069" y="1204"/>
      <point x="971" y="1204" type="curve" smooth="yes"/>
      <point x="862" y="1204"/>
      <point x="759" y="1146"/>
      <point x="682" y="1046" type="curve"/>
      <point x="654" y="1170"/>
      <point x="575" y="1204"/>
      <point x="498" y="1204" type="curve" smooth="yes"/>
      <point x="394" y="1204"/>
      <point x="295" y="1151"/>
      <point x="220" y="1059" type="curve"/>
      <point x="220" y="1184" type="line"/>
      <point x="116" y="1184" type="line"/>
    </contour>
  </outline>
</glyph>
<glyph name="q" format="1">
  <advance width="812"/>
  <unicode hex="0071"/>
  <outline>
    <contour>
      <point x="588" y="-390" type="line"/>
      <point x="697" y="-390" type="line"/>
      <point x="697" y="1184" type="line"/>
      <point x="588" y="1184" type="line"/>
      <point x="588" y="1092" type="line"/>
      <point x="544" y="1146"/>
      <point x="472" y="1202"/>
      <point x="372" y="1203" type="curve" smooth="yes"/>
      <point x="155" y="1203"/>
      <point x="99" y="1030"/>
      <point x="99" y="697" type="curve" smooth="yes"/>
      <point x="99" y="486" type="line" smooth="yes"/>
      <point x="99" y="126"/>
      <point x="173" y="-19"/>
      <point x="377" y="-19" type="curve" smooth="yes"/>
      <point x="475" y="-19"/>
      <point x="545" y="39"/>
      <point x="588" y="91" type="curve"/>
    </contour>
    <contour>
      <point x="393" y="66" type="curve" smooth="yes"/>
      <point x="244" y="66"/>
      <point x="208" y="190"/>
      <point x="208" y="477" type="curve" smooth="yes"/>
      <point x="208" y="723" type="line" smooth="yes"/>
      <point x="208" y="1000"/>
      <point x="238" y="1118"/>
      <point x="389" y="1118" type="curve" smooth="yes"/>
      <point x="474" y="1118"/>
      <point x="545" y="1059"/>
      <point x="588" y="1014" type="curve"/>
      <point x="588" y="167" type="line"/>
      <point x="539" y="112"/>
      <point x="471" y="66"/>
    </contour>
  </outline>
</glyph>
<glyph name="u" format="1">
  <advance width="808"/>
  <unicode hex="0075"/>
  <outline>
    <contour>
      <point x="292" y="-19" type="curve" smooth="yes"/>
      <point x="405" y="-19"/>
      <point x="507" y="44"/>
      <point x="583" y="139" type="curve"/>
      <point x="583" y="0" type="line"/>
      <point x="691" y="0" type="line"/>
      <point x="691" y="1184" type="line"/>
      <point x="583" y="1184" type="line"/>
      <point x="583" y="208" type="line"/>
      <point x="512" y="125"/>
      <point x="423" y="66"/>
      <point x="339" y="66" type="curve" smooth="yes"/>
      <point x="264" y="66"/>
      <point x="215" y="107"/>
      <point x="215" y="252" type="curve" smooth="yes"/>
      <point x="215" y="1184" type="line"/>
      <point x="106" y="1184" type="line"/>
      <point x="106" y="240" type="line" smooth="yes"/>
      <point x="106" y="51"/>
      <point x="187" y="-19"/>
    </contour>
  </outline>
</glyph>
<glyph name="z" format="1">
  <advance width="666"/>
  <unicode hex="007A"/>
  <outline>
    <contour>
      <point x="66" y="0" type="line"/>
      <point x="597" y="0" type="line"/>
      <point x="597" y="83" type="line"/>
      <point x="181" y="83" type="line"/>
      <point x="605" y="1113" type="line"/>
      <point x="605" y="1184" type="line"/>
      <point x="111" y="1184" type="line"/>
      <point x="111" y="1100" type="line"/>
      <point x="493" y="1100" type="line"/>
      <point x="66" y="79" type="line"/>
    </contour>
  </outline>
</glyph>
<glyph name="braceleft" format="1">
  <advance width="475"/>
  <unicode hex="007B"/>
  <outline>
    <contour>
      <point x="439" y="-305" type="curve"/>
      <point x="439" y="-222" type="line"/>
      <point x="302" y="-222"/>
      <point x="302" y="-204"/>
      <point x="302" y="108" type="curve" smooth="yes"/>
      <point x="302" y="390" type="line" smooth="yes"/>
      <point x="302" y="595"/>
      <point x="274" y="665"/>
      <point x="191" y="691" type="curve"/>
      <point x="274" y="717"/>
      <point x="302" y="787"/>
      <point x="302" y="992" type="curve" smooth="yes"/>
      <point x="302" y="1261" type="line" smooth="yes"/>
      <point x="302" y="1573"/>
      <point x="302" y="1592"/>
      <point x="439" y="1592" type="curve"/>
      <point x="439" y="1674" type="line"/>
      <point x="202" y="1674"/>
      <point x="195" y="1626"/>
      <point x="195" y="1261" type="curve" smooth="yes"/>
      <point x="195" y="1024" type="line" smooth="yes"/>
      <point x="195" y="800"/>
      <point x="176" y="738"/>
      <point x="76" y="738" type="curve"/>
      <point x="76" y="644" type="line"/>
      <point x="176" y="644"/>
      <point x="195" y="582"/>
      <point x="195" y="358" type="curve" smooth="yes"/>
      <point x="195" y="108" type="line" smooth="yes"/>
      <point x="195" y="-257"/>
      <point x="202" y="-305"/>
    </contour>
  </outline>
</glyph>
<glyph name="cent" format="1">
  <advance width="776"/>
  <unicode hex="00A2"/>
  <outline>
    <contour>
      <point x="349" y="-229" type="line"/>
      <point x="406" y="-229" type="line"/>
      <point x="406" y="-19" type="line"/>
      <point x="653" y="-13"/>
      <point x="682" y="166"/>
      <point x="682" y="399" type="curve" smooth="yes"/>
      <point x="682" y="443" type="line"/>
      <point x="580" y="443" type="line"/>
      <point x="580" y="397" type="line" smooth="yes"/>
      <point x="580" y="162"/>
      <point x="554" y="63"/>
      <point x="395" y="63" type="curve" smooth="yes"/>
      <point x="239" y="63"/>
      <point x="203" y="171"/>
      <point x="203" y="429" type="curve" smooth="yes"/>
      <point x="203" y="736" type="line" smooth="yes"/>
      <point x="203" y="1016"/>
      <point x="233" y="1121"/>
      <point x="394" y="1121" type="curve" smooth="yes"/>
      <point x="524" y="1121"/>
      <point x="580" y="1058"/>
      <point x="580" y="819" type="curve" smooth="yes"/>
      <point x="580" y="772" type="line"/>
      <point x="682" y="772" type="line"/>
      <point x="682" y="820" type="line" smooth="yes"/>
      <point x="682" y="1029"/>
      <point x="642" y="1190"/>
      <point x="417" y="1202" type="curve"/>
      <point x="417" y="1409" type="line"/>
      <point x="360" y="1409" type="line"/>
      <point x="360" y="1202" type="line"/>
      <point x="156" y="1189"/>
      <point x="94" y="1056"/>
      <point x="94" y="723" type="curve" smooth="yes"/>
      <point x="94" y="445" type="line" smooth="yes"/>
      <point x="94" y="202"/>
      <point x="123" y="4"/>
      <point x="349" y="-17" type="curve"/>
    </contour>
  </outline>
</glyph>
<glyph name="section" format="1">
  <advance width="787"/>
  <unicode hex="00A7"/>
  <outline>
    <contour>
      <point x="401" y="-19" type="curve" smooth="yes"/>
      <point x="572" y="-19"/>
      <point x="692" y="85"/>
      <point x="689" y="256" type="curve" smooth="yes"/>
      <point x="687" y="359"/>
      <point x="621" y="430"/>
      <point x="565" y="496" type="curve"/>
      <point x="646" y="537"/>
      <point x="722" y="594"/>
      <point x="731" y="715" type="curve" smooth="yes"/>
      <point x="742" y="852"/>
      <point x="675" y="940"/>
      <point x="575" y="1028" type="curve" smooth="yes"/>
      <point x="365" y="1204" type="line" smooth="yes"/>
      <point x="291" y="1272"/>
      <point x="225" y="1349"/>
      <point x="225" y="1422" type="curve" smooth="yes"/>
      <point x="225" y="1531"/>
      <point x="299" y="1587"/>
      <point x="392" y="1587" type="curve" smooth="yes"/>
      <point x="514" y="1587"/>
      <point x="567" y="1450"/>
      <point x="597" y="1359" type="curve"/>
      <point x="685" y="1387" type="line"/>
      <point x="642" y="1516"/>
      <point x="568" y="1675"/>
      <point x="396" y="1675" type="curve" smooth="yes"/>
      <point x="223" y="1675"/>
      <point x="120" y="1569"/>
      <point x="120" y="1427" type="curve" smooth="yes"/>
      <point x="120" y="1333"/>
      <point x="188" y="1256"/>
      <point x="260" y="1187" type="curve"/>
      <point x="165" y="1155"/>
      <point x="74" y="1082"/>
      <point x="74" y="957" type="curve" smooth="yes"/>
      <point x="74" y="881"/>
      <point x="112" y="809"/>
      <point x="187" y="742" type="curve" smooth="yes"/>
      <point x="413" y="532" type="line" smooth="yes"/>
      <point x="584" y="360"/>
      <point x="594" y="302"/>
      <point x="592" y="240" type="curve" smooth="yes"/>
      <point x="590" y="135"/>
      <point x="515" y="67"/>
      <point x="404" y="67" type="curve" smooth="yes"/>
      <point x="281" y="67"/>
      <point x="203" y="191"/>
      <point x="172" y="326" type="curve"/>
      <point x="88" y="298" type="line"/>
      <point x="128" y="134"/>
      <point x="221" y="-19"/>
    </contour>
    <contour>
      <point x="501" y="555" type="curve"/>
      <point x="252" y="811" type="line" smooth="yes"/>
      <point x="202" y="862"/>
      <point x="177" y="911"/>
      <point x="177" y="960" type="curve" smooth="yes"/>
      <point x="177" y="1047"/>
      <point x="238" y="1104"/>
      <point x="322" y="1129" type="curve"/>
      <point x="508" y="965" type="line" smooth="yes"/>
      <point x="608" y="877"/>
      <point x="651" y="807"/>
      <point x="640" y="715" type="curve" smooth="yes"/>
      <point x="631" y="635"/>
      <point x="560" y="581"/>
    </contour>
  </outline>
</glyph>
<glyph name="ordfeminine" format="1">
  <advance width="803"/>
  <unicode hex="00AA"/>
  <outline>
    <contour>
      <point x="354" y="719" type="curve"/>
      <point x="451" y="719"/>
      <point x="537" y="775"/>
      <point x="573" y="852" type="curve"/>
      <point x="581" y="733" type="line"/>
      <point x="663" y="733" type="line"/>
      <point x="663" y="1342" type="line" smooth="yes"/>
      <point x="663" y="1576"/>
      <point x="610" y="1680"/>
      <point x="429" y="1680" type="curve" smooth="yes"/>
      <point x="267" y="1680"/>
      <point x="178" y="1598"/>
      <point x="174" y="1424" type="curve"/>
      <point x="264" y="1422" type="line"/>
      <point x="264" y="1573"/>
      <point x="346" y="1607"/>
      <point x="429" y="1607" type="curve" smooth="yes"/>
      <point x="530" y="1607"/>
      <point x="568" y="1546"/>
      <point x="568" y="1351" type="curve" smooth="yes"/>
      <point x="568" y="1273" type="line"/>
      <point x="220" y="1132"/>
      <point x="145" y="1077"/>
      <point x="145" y="921" type="curve" smooth="yes"/>
      <point x="145" y="798"/>
      <point x="228" y="719"/>
    </contour>
    <contour>
      <point x="374" y="794" type="curve" smooth="yes"/>
      <point x="312" y="794"/>
      <point x="240" y="826"/>
      <point x="240" y="931" type="curve" smooth="yes"/>
      <point x="240" y="1070"/>
      <point x="312" y="1101"/>
      <point x="568" y="1218" type="curve"/>
      <point x="568" y="927" type="line"/>
      <point x="528" y="853"/>
      <point x="464" y="794"/>
    </contour>
  </outline>
</glyph>
<glyph name="guillemotleft" format="1">
  <advance width="837"/>
  <unicode hex="00AB"/>
  <outline>
    <contour>
      <point x="428" y="232" type="line"/>
      <point x="428" y="372" type="line"/>
      <point x="183" y="683" type="line"/>
      <point x="428" y="986" type="line"/>
      <point x="428" y="1126" type="line"/>
      <point x="84" y="701" type="line"/>
      <point x="84" y="658" type="line"/>
    </contour>
    <contour>
      <point x="724" y="232" type="line"/>
      <point x="724" y="372" type="line"/>
      <point x="479" y="680" type="line"/>
      <point x="724" y="986" type="line"/>
      <point x="724" y="1126" type="line"/>
      <point x="379" y="701" type="line"/>
      <point x="379" y="658" type="line"/>
    </contour>
  </outline>
</glyph>
<glyph name="paragraph" format="1">
  <advance width="984"/>
  <unicode hex="00B6"/>
  <outline>
    <contour>
      <point x="412" y="-192" type="line"/>
      <point x="494" y="-192" type="line"/>
      <point x="494" y="1585" type="line"/>
      <point x="748" y="1585" type="line"/>
      <point x="748" y="-192" type="line"/>
      <point x="830" y="-192" type="line"/>
      <point x="830" y="1658" type="line"/>
      <point x="409" y="1658" type="line" smooth="yes"/>
      <point x="158" y="1658"/>
      <point x="55" y="1542"/>
      <point x="55" y="1378" type="curve" smooth="yes"/>
      <point x="55" y="1198"/>
      <point x="191" y="1101"/>
      <point x="412" y="1103" type="curve"/>
    </contour>
  </outline>
</glyph>
<glyph name="ordmasculine" format="1">
  <advance width="803"/>
  <unicode hex="00BA"/>
  <outline>
    <contour>
      <point x="401" y="718" type="curve" smooth="yes"/>
      <point x="617" y="718"/>
      <point x="672" y="843"/>
      <point x="672" y="1018" type="curve" smooth="yes"/>
      <point x="672" y="1381" type="line" smooth="yes"/>
      <point x="672" y="1556"/>
      <point x="608" y="1680"/>
      <point x="401" y="1680" type="curve" smooth="yes"/>
      <point x="192" y="1680"/>
      <point x="131" y="1559"/>
      <point x="131" y="1381" type="curve" smooth="yes"/>
      <point x="131" y="1018" type="line" smooth="yes"/>
      <point x="131" y="840"/>
      <point x="184" y="718"/>
    </contour>
    <contour>
      <point x="400" y="787" type="curve" smooth="yes"/>
      <point x="254" y="787"/>
      <point x="216" y="884"/>
      <point x="216" y="1020" type="curve" smooth="yes"/>
      <point x="216" y="1379" type="line" smooth="yes"/>
      <point x="216" y="1514"/>
      <point x="256" y="1611"/>
      <point x="400" y="1611" type="curve" smooth="yes"/>
      <point x="546" y="1611"/>
      <point x="584" y="1514"/>
      <point x="584" y="1379" type="curve" smooth="yes"/>
      <point x="584" y="1020" type="line" smooth="yes"/>
      <point x="584" y="884"/>
      <point x="547" y="787"/>
    </contour>
  </outline>
</glyph>
<glyph name="onequarter" format="1">
  <advance width="1542"/>
  <unicode hex="00BC"/>
  <outline>
    <contour>
      <point x="1242" y="-14" type="line"/>
      <point x="1336" y="-14" type="line"/>
      <point x="1336" y="285" type="line"/>
      <point x="1466" y="285" type="line"/>
      <point x="1466" y="358" type="line"/>
      <point x="1336" y="358" type="line"/>
      <point x="1336" y="1061" type="line"/>
      <point x="1241" y="1061" type="line"/>
      <point x="923" y="355" type="line"/>
      <point x="923" y="285" type="line"/>
      <point x="1242" y="285" type="line"/>
    </contour>
    <contour>
      <point x="263" y="590" type="line"/>
      <point x="352" y="590" type="line"/>
      <point x="352" y="1658" type="line"/>
      <point x="294" y="1658" type="line"/>
      <point x="268" y="1629"/>
      <point x="169" y="1561"/>
      <point x="110" y="1532" type="curve"/>
      <point x="110" y="1453" type="line"/>
      <point x="263" y="1530" type="line"/>
    </contour>
    <contour>
      <point x="392" y="0" type="line"/>
      <point x="491" y="0" type="line"/>
      <point x="1081" y="1658" type="line"/>
      <point x="983" y="1658" type="line"/>
    </contour>
    <contour>
      <point x="1007" y="358" type="line"/>
      <point x="1242" y="915" type="line"/>
      <point x="1242" y="358" type="line"/>
    </contour>
  </outline>
</glyph>
<glyph name="divide" format="1">
  <advance width="678"/>
  <unicode hex="00F7"/>
  <outline>
    <contour>
      <point x="289" y="431" type="line"/>
      <point x="390" y="431" type="line"/>
      <point x="390" y="591" type="line"/>
      <point x="289" y="591" type="line"/>
    </contour>
    <contour>
      <point x="61" y="812" type="line"/>
      <point x="616" y="812" type="line"/>
      <point x="616" y="900" type="line"/>
      <point x="61" y="900" type="line"/>
    </contour>
    <contour>
      <point x="289" y="1097" type="line"/>
      <point x="390" y="1097" type="line"/>
      <point x="390" y="1258" type="line"/>
      <point x="289" y="1258" type="line"/>
    </contour>
  </outline>
</glyph>
<glyph name="Dcroat" format="1">
  <advance width="1060"/>
  <unicode hex="0110"/>
  <outline>
    <contour>
      <point x="266" y="88" type="line"/>
      <point x="266" y="836" type="line"/>
      <point x="458" y="836" type="line"/>
      <point x="458" y="911" type="line"/>
      <point x="266" y="911" type="line"/>
      <point x="266" y="1569" type="line"/>
      <point x="517" y="1569" type="line" smooth="yes"/>
      <point x="772" y="1569"/>
      <point x="829" y="1416"/>
      <point x="829" y="1173" type="curve" smooth="yes"/>
      <point x="829" y="506" type="line" smooth="yes"/>
      <point x="829" y="280"/>
      <point x="790" y="88"/>
      <point x="522" y="88" type="curve" smooth="yes"/>
    </contour>
    <contour>
      <point x="154" y="0" type="line"/>
      <point x="528" y="0" type="line" smooth="yes"/>
      <point x="848" y="0"/>
      <point x="942" y="208"/>
      <point x="942" y="494" type="curve" smooth="yes"/>
      <point x="942" y="1182" type="line" smooth="yes"/>
      <point x="942" y="1448"/>
      <point x="848" y="1658"/>
      <point x="518" y="1658" type="curve" smooth="yes"/>
      <point x="154" y="1658" type="line"/>
      <point x="154" y="911" type="line"/>
      <point x="20" y="911" type="line"/>
      <point x="20" y="836" type="line"/>
      <point x="154" y="836" type="line"/>
    </contour>
  </outline>
</glyph>
<glyph name="Lslash" format="1">
  <advance width="764"/>
  <unicode hex="0141"/>
  <outline>
    <contour>
      <point x="153" y="0" type="line"/>
      <point x="766" y="0" type="line"/>
      <point x="766" y="88" type="line"/>
      <point x="265" y="88" type="line"/>
      <point x="265" y="895" type="line"/>
      <point x="514" y="1024" type="line"/>
      <point x="514" y="1115" type="line"/>
      <point x="265" y="986" type="line"/>
      <point x="265" y="1658" type="line"/>
      <point x="153" y="1658" type="line"/>
      <point x="153" y="926" type="line"/>
      <point x="6" y="850" type="line"/>
      <point x="6" y="759" type="line"/>
      <point x="153" y="835" type="line"/>
    </contour>
  </outline>
</glyph>
<glyph name="lslash" format="1">
  <advance width="505"/>
  <unicode hex="0142"/>
  <outline>
    <contour>
      <point x="198" y="0" type="line"/>
      <point x="307" y="0" type="line"/>
      <point x="307" y="999" type="line"/>
      <point x="431" y="1068" type="line"/>
      <point x="431" y="1162" type="line"/>
      <point x="307" y="1093" type="line"/>
      <point x="307" y="1658" type="line"/>
      <point x="198" y="1658" type="line"/>
      <point x="198" y="1037" type="line"/>
      <point x="72" y="968" type="line"/>
      <point x="72" y="873" type="line"/>
      <point x="198" y="943" type="line"/>
    </contour>
  </outline>
</glyph>
<glyph name="caron" format="1">
  <advance width="567"/>
  <unicode hex="02C7"/>
  <outline>
    <contour>
      <point x="244" y="1326" type="line"/>
      <point x="326" y="1326" type="line"/>
      <point x="501" y="1658" type="line"/>
      <point x="409" y="1658" type="line"/>
      <point x="286" y="1409" type="line"/>
      <point x="164" y="1658" type="line"/>
      <point x="71" y="1658" type="line"/>
    </contour>
  </outline>
</glyph>
<glyph name="hungarumlaut" format="1">
  <advance width="536"/>
  <unicode hex="02DD"/>
  <outline>
    <contour>
      <point x="145" y="1366" type="line"/>
      <point x="205" y="1366" type="line"/>
      <point x="332" y="1680" type="line"/>
      <point x="223" y="1680" type="line"/>
    </contour>
    <contour>
      <point x="326" y="1366" type="line"/>
      <point x="389" y="1366" type="line"/>
      <point x="564" y="1680" type="line"/>
      <point x="437" y="1680" type="line"/>
    </contour>
  </outline>
</glyph>
<glyph name="gravecomb" format="1">
  <advance width="0"/>
  <unicode hex="0300"/>
  <outline>
    <contour>
      <point x="73" y="1261" type="line"/>
      <point x="130" y="1261" type="line"/>
      <point x="18" y="1658" type="line"/>
      <point x="-92" y="1658" type="line"/>
    </contour>
  </outline>
</glyph>
<glyph name="acutecomb" format="1">
  <advance width="268"/>
  <unicode hex="0301"/>
  <outline>
    <contour>
      <point x="41" y="1261" type="line"/>
      <point x="98" y="1261" type="line"/>
      <point x="283" y="1658" type="line"/>
      <point x="173" y="1658" type="line"/>
    </contour>
  </outline>
</glyph>
<glyph name="Pi" format="1">
  <advance width="1148"/>
  <unicode hex="03A0"/>
  <outline>
    <contour>
      <point x="152" y="0" type="line"/>
      <point x="261" y="0" type="line"/>
      <point x="261" y="1573" type="line"/>
      <point x="887" y="1573" type="line"/>
      <point x="887" y="0" type="line"/>
      <point x="997" y="0" type="line"/>
      <point x="997" y="1658" type="line"/>
      <point x="152" y="1658" type="line"/>
    </contour>
  </outline>
</glyph>
<glyph name="afii10051" format="1">
  <advance width="992"/>
  <unicode hex="0402"/>
  <outline>
    <contour>
      <point x="506" y="0" type="line"/>
      <point x="525" y="0" type="line" smooth="yes"/>
      <point x="772" y="0"/>
      <point x="898" y="115"/>
      <point x="898" y="377" type="curve" smooth="yes"/>
      <point x="898" y="666" type="line" smooth="yes"/>
      <point x="898" y="893"/>
      <point x="742" y="979"/>
      <point x="593" y="979" type="curve" smooth="yes"/>
      <point x="500" y="979"/>
      <point x="409" y="945"/>
      <point x="360" y="895" type="curve"/>
      <point x="360" y="1569" type="line"/>
      <point x="680" y="1569" type="line"/>
      <point x="680" y="1658" type="line"/>
      <point x="-54" y="1658" type="line"/>
      <point x="-54" y="1569" type="line"/>
      <point x="250" y="1569" type="line"/>
      <point x="250" y="0" type="line"/>
      <point x="360" y="0" type="line"/>
      <point x="360" y="820" type="line"/>
      <point x="423" y="868"/>
      <point x="502" y="895"/>
      <point x="575" y="895" type="curve" smooth="yes"/>
      <point x="695" y="895"/>
      <point x="789" y="820"/>
      <point x="789" y="669" type="curve" smooth="yes"/>
      <point x="789" y="379" type="line" smooth="yes"/>
      <point x="789" y="189"/>
      <point x="722" y="86"/>
      <point x="506" y="86" type="curve"/>
    </contour>
  </outline>
</glyph>
<glyph name="afii10058" format="1">
  <advance width="1658"/>
  <unicode hex="0409"/>
  <outline>
    <contour>
      <point x="44" y="-5" type="line"/>
      <point x="69" y="-6" type="line" smooth="yes"/>
      <point x="353" y="-9"/>
      <point x="380" y="184"/>
      <point x="423" y="713" type="curve" smooth="yes"/>
      <point x="492" y="1572" type="line"/>
      <point x="869" y="1572" type="line"/>
      <point x="869" y="0" type="line"/>
      <point x="1162" y="0" type="line" smooth="yes"/>
      <point x="1483" y="0"/>
      <point x="1602" y="194"/>
      <point x="1602" y="470" type="curve" smooth="yes"/>
      <point x="1602" y="795"/>
      <point x="1463" y="959"/>
      <point x="1158" y="959" type="curve" smooth="yes"/>
      <point x="982" y="959" type="line"/>
      <point x="982" y="1658" type="line"/>
      <point x="388" y="1658" type="line"/>
      <point x="316" y="713" type="line" smooth="yes"/>
      <point x="275" y="202"/>
      <point x="263" y="80"/>
      <point x="44" y="84" type="curve"/>
    </contour>
    <contour>
      <point x="982" y="91" type="line"/>
      <point x="982" y="868" type="line"/>
      <point x="1164" y="868" type="line" smooth="yes"/>
      <point x="1407" y="868"/>
      <point x="1489" y="719"/>
      <point x="1489" y="472" type="curve" smooth="yes"/>
      <point x="1489" y="225"/>
      <point x="1407" y="91"/>
      <point x="1165" y="91" type="curve" smooth="yes"/>
    </contour>
  </outline>
</glyph>
<glyph name="afii10059" format="1">
  <advance width="1533"/>
  <unicode hex="040A"/>
  <outline>
    <contour>
      <point x="1043" y="0" type="line"/>
      <point x="1364" y="0"/>
      <point x="1482" y="194"/>
      <point x="1482" y="470" type="curve" smooth="yes"/>
      <point x="1482" y="795"/>
      <point x="1344" y="959"/>
      <point x="1039" y="959" type="curve" smooth="yes"/>
      <point x="863" y="959" type="line"/>
      <point x="863" y="1659" type="line"/>
      <point x="751" y="1659" type="line"/>
      <point x="751" y="953" type="line"/>
      <point x="265" y="953" type="line"/>
      <point x="265" y="1659" type="line"/>
      <point x="153" y="1659" type="line"/>
      <point x="153" y="1" type="line"/>
      <point x="265" y="1" type="line"/>
      <point x="265" y="868" type="line"/>
      <point x="751" y="868" type="line"/>
      <point x="751" y="1" type="line"/>
    </contour>
    <contour>
      <point x="863" y="91" type="line"/>
      <point x="863" y="868" type="line"/>
      <point x="1044" y="868" type="line" smooth="yes"/>
      <point x="1288" y="868"/>
      <point x="1370" y="719"/>
      <point x="1370" y="472" type="curve" smooth="yes"/>
      <point x="1370" y="225"/>
      <point x="1288" y="91"/>
      <point x="1046" y="91" type="curve" smooth="yes"/>
    </contour>
  </outline>
</glyph>
<glyph name="afii10060" format="1">
  <advance width="898"/>
  <unicode hex="040B"/>
  <outline>
    <contour>
      <point x="217" y="0" type="line"/>
      <point x="328" y="0" type="line"/>
      <point x="328" y="818" type="line"/>
      <point x="385" y="870"/>
      <point x="456" y="910"/>
      <point x="542" y="910" type="curve" smooth="yes"/>
      <point x="618" y="910"/>
      <point x="680" y="878"/>
      <point x="680" y="759" type="curve" smooth="yes"/>
      <point x="680" y="0" type="line"/>
      <point x="789" y="0" type="line"/>
      <point x="789" y="769" type="line" smooth="yes"/>
      <point x="789" y="931"/>
      <point x="671" y="980"/>
      <point x="566" y="980" type="curve" smooth="yes"/>
      <point x="456" y="980"/>
      <point x="371" y="933"/>
      <point x="328" y="893" type="curve"/>
      <point x="328" y="1569" type="line"/>
      <point x="665" y="1569" type="line"/>
      <point x="665" y="1658" type="line"/>
      <point x="-115" y="1658" type="line"/>
      <point x="-115" y="1569" type="line"/>
      <point x="217" y="1569" type="line"/>
    </contour>
  </outline>
</glyph>
<glyph name="afii10145" format="1">
  <advance width="1047"/>
  <unicode hex="040F"/>
  <outline>
    <contour>
      <point x="497" y="-275" type="line"/>
      <point x="584" y="-275" type="line"/>
      <point x="594" y="0" type="line"/>
      <point x="894" y="0" type="line"/>
      <point x="894" y="1658" type="line"/>
      <point x="782" y="1658" type="line"/>
      <point x="782" y="85" type="line"/>
      <point x="265" y="85" type="line"/>
      <point x="265" y="1658" type="line"/>
      <point x="153" y="1658" type="line"/>
      <point x="153" y="0" type="line"/>
      <point x="486" y="0" type="line"/>
    </contour>
  </outline>
</glyph>
<glyph name="afii10029" format="1">
  <advance width="1141"/>
  <unicode hex="041B"/>
  <outline>
    <contour>
      <point x="51" y="-5" type="line"/>
      <point x="381" y="3"/>
      <point x="380" y="107"/>
      <point x="459" y="1040" type="curve" smooth="yes"/>
      <point x="500" y="1572" type="line"/>
      <point x="877" y="1572" type="line"/>
      <point x="877" y="0" type="line"/>
      <point x="989" y="0" type="line"/>
      <point x="989" y="1658" type="line"/>
      <point x="396" y="1658" type="line"/>
      <point x="350" y="1041" type="line" smooth="yes"/>
      <point x="274" y="107"/>
      <point x="271" y="97"/>
      <point x="51" y="84" type="curve"/>
    </contour>
  </outline>
</glyph>
<glyph name="afii10031" format="1">
  <advance width="1109"/>
  <unicode hex="041D"/>
  <outline>
    <contour>
      <point x="152" y="0" type="line"/>
      <point x="264" y="0" type="line"/>
      <point x="264" y="826" type="line"/>
      <point x="845" y="826" type="line"/>
      <point x="845" y="0" type="line"/>
      <point x="957" y="0" type="line"/>
      <point x="957" y="1658" type="line"/>
      <point x="845" y="1658" type="line"/>
      <point x="845" y="911" type="line"/>
      <point x="264" y="911" type="line"/>
      <point x="264" y="1658" type="line"/>
      <point x="152" y="1658" type="line"/>
    </contour>
  </outline>
</glyph>
<glyph name="afii10032" format="1">
  <advance width="1071"/>
  <unicode hex="041E"/>
  <outline>
    <contour>
      <point x="535" y="70" type="curve" smooth="yes"/>
      <point x="297" y="70"/>
      <point x="231" y="222"/>
      <point x="231" y="447" type="curve" smooth="yes"/>
      <point x="231" y="1212" type="line" smooth="yes"/>
      <point x="231" y="1438"/>
      <point x="297" y="1586"/>
      <point x="535" y="1586" type="curve" smooth="yes"/>
      <point x="774" y="1586"/>
      <point x="839" y="1437"/>
      <point x="839" y="1212" type="curve" smooth="yes"/>
      <point x="839" y="447" type="line" smooth="yes"/>
      <point x="839" y="222"/>
      <point x="773" y="70"/>
    </contour>
    <contour>
      <point x="535" y="-22" type="curve" smooth="yes"/>
      <point x="858" y="-22"/>
      <point x="952" y="186"/>
      <point x="952" y="469" type="curve" smooth="yes"/>
      <point x="952" y="1196" type="line" smooth="yes"/>
      <point x="952" y="1477"/>
      <point x="849" y="1677"/>
      <point x="535" y="1677" type="curve" smooth="yes"/>
      <point x="221" y="1677"/>
      <point x="118" y="1478"/>
      <point x="118" y="1196" type="curve" smooth="yes"/>
      <point x="118" y="472" type="line" smooth="yes"/>
      <point x="118" y="188"/>
      <point x="211" y="-22"/>
    </contour>
  </outline>
</glyph>
<glyph name="afii10036" format="1">
  <advance width="766"/>
  <unicode hex="0422"/>
  <outline>
    <contour>
      <point x="359" y="0" type="line"/>
      <point x="471" y="0" type="line"/>
      <point x="471" y="1569" type="line"/>
      <point x="815" y="1569" type="line"/>
      <point x="815" y="1658" type="line"/>
      <point x="8" y="1658" type="line"/>
      <point x="8" y="1569" type="line"/>
      <point x="359" y="1569" type="line"/>
    </contour>
  </outline>
</glyph>
<glyph name="afii10040" format="1">
  <advance width="1137"/>
  <unicode hex="0426"/>
  <outline>
    <contour>
      <point x="991" y="-275" type="line"/>
      <point x="1081" y="-275" type="line"/>
      <point x="1081" y="85" type="line"/>
      <point x="966" y="85" type="line"/>
      <point x="966" y="1658" type="line"/>
      <point x="854" y="1658" type="line"/>
      <point x="854" y="85" type="line"/>
      <point x="264" y="85" type="line"/>
      <point x="264" y="1658" type="line"/>
      <point x="152" y="1658" type="line"/>
      <point x="152" y="0" type="line"/>
      <point x="978" y="0" type="line"/>
    </contour>
  </outline>
</glyph>
<glyph name="afii10042" format="1">
  <advance width="1437"/>
  <unicode hex="0428"/>
  <outline>
    <contour>
      <point x="153" y="0" type="line"/>
      <point x="1284" y="0" type="line"/>
      <point x="1284" y="1658" type="line"/>
      <point x="1172" y="1658" type="line"/>
      <point x="1172" y="85" type="line"/>
      <point x="782" y="85" type="line"/>
      <point x="782" y="1658" type="line"/>
      <point x="670" y="1658" type="line"/>
      <point x="670" y="85" type="line"/>
      <point x="265" y="85" type="line"/>
      <point x="265" y="1658" type="line"/>
      <point x="153" y="1658" type="line"/>
    </contour>
  </outline>
</glyph>
<glyph name="afii10067" format="1">
  <advance width="768"/>
  <unicode hex="0432"/>
  <outline>
    <contour>
      <point x="116" y="0" type="line"/>
      <point x="396" y="0" type="line" smooth="yes"/>
      <point x="641" y="0"/>
      <point x="695" y="139"/>
      <point x="695" y="343" type="curve" smooth="yes"/>
      <point x="695" y="475"/>
      <point x="652" y="599"/>
      <point x="522" y="640" type="curve"/>
      <point x="633" y="684"/>
      <point x="670" y="799"/>
      <point x="669" y="898" type="curve" smooth="yes"/>
      <point x="668" y="1044"/>
      <point x="602" y="1184"/>
      <point x="377" y="1184" type="curve" smooth="yes"/>
      <point x="116" y="1184" type="line"/>
    </contour>
    <contour>
      <point x="223" y="84" type="line"/>
      <point x="223" y="589" type="line"/>
      <point x="395" y="589" type="line" smooth="yes"/>
      <point x="509" y="589"/>
      <point x="588" y="533"/>
      <point x="588" y="346" type="curve" smooth="yes"/>
      <point x="588" y="192"/>
      <point x="546" y="84"/>
      <point x="385" y="84" type="curve" smooth="yes"/>
    </contour>
    <contour>
      <point x="223" y="671" type="line"/>
      <point x="223" y="1096" type="line"/>
      <point x="371" y="1096" type="line" smooth="yes"/>
      <point x="504" y="1096"/>
      <point x="568" y="1017"/>
      <point x="568" y="890" type="curve" smooth="yes"/>
      <point x="568" y="754"/>
      <point x="497" y="671"/>
      <point x="399" y="671" type="curve" smooth="yes"/>
    </contour>
  </outline>
</glyph>
<glyph name="afii10069" format="1">
  <advance width="932"/>
  <unicode hex="0434"/>
  <outline>
    <contour>
      <point x="29" y="-275" type="line"/>
      <point x="114" y="-275" type="line"/>
      <point x="124" y="0" type="line"/>
      <point x="759" y="0" type="line"/>
      <point x="768" y="-275" type="line"/>
      <point x="855" y="-275" type="line"/>
      <point x="855" y="79" type="line"/>
      <point x="750" y="79" type="line"/>
      <point x="750" y="1184" type="line"/>
      <point x="281" y="1184" type="line"/>
      <point x="253" y="833" type="line" smooth="yes"/>
      <point x="219" y="301"/>
      <point x="159" y="147"/>
      <point x="29" y="76" type="curve"/>
    </contour>
    <contour>
      <point x="151" y="79" type="line"/>
      <point x="278" y="162"/>
      <point x="313" y="326"/>
      <point x="344" y="813" type="curve" smooth="yes"/>
      <point x="371" y="1101" type="line"/>
      <point x="643" y="1101" type="line"/>
      <point x="643" y="79" type="line"/>
    </contour>
  </outline>
</glyph>
<glyph name="afii10070" format="1">
  <advance width="777"/>
  <unicode hex="0435"/>
  <outline>
    <contour>
      <point x="396" y="-19" type="curve" smooth="yes"/>
      <point x="618" y="-19"/>
      <point x="688" y="119"/>
      <point x="688" y="322" type="curve" smooth="yes"/>
      <point x="688" y="400" type="line"/>
      <point x="581" y="400" type="line"/>
      <point x="581" y="312" type="line" smooth="yes"/>
      <point x="581" y="84"/>
      <point x="481" y="63"/>
      <point x="395" y="63" type="curve" smooth="yes"/>
      <point x="258" y="63"/>
      <point x="203" y="146"/>
      <point x="203" y="430" type="curve" smooth="yes"/>
      <point x="203" y="619" type="line"/>
      <point x="687" y="619" type="line"/>
      <point x="689" y="732" type="line" smooth="yes"/>
      <point x="689" y="1071"/>
      <point x="619" y="1203"/>
      <point x="398" y="1203" type="curve" smooth="yes"/>
      <point x="211" y="1203"/>
      <point x="94" y="1125"/>
      <point x="94" y="754" type="curve" smooth="yes"/>
      <point x="94" y="438" type="line" smooth="yes"/>
      <point x="94" y="72"/>
      <point x="207" y="-19"/>
    </contour>
    <contour>
      <point x="203" y="684" type="line"/>
      <point x="203" y="774" type="line" smooth="yes"/>
      <point x="203" y="1055"/>
      <point x="264" y="1121"/>
      <point x="398" y="1121" type="curve" smooth="yes"/>
      <point x="563" y="1121"/>
      <point x="581" y="987"/>
      <point x="581" y="776" type="curve" smooth="yes"/>
      <point x="581" y="684" type="line"/>
    </contour>
  </outline>
</glyph>
<glyph name="afii10087" format="1">
  <advance width="745"/>
  <unicode hex="0445"/>
  <outline>
    <contour>
      <point x="30" y="0" type="line"/>
      <point x="137" y="0" type="line"/>
      <point x="372" y="504" type="line"/>
      <point x="614" y="0" type="line"/>
      <point x="716" y="0" type="line"/>
      <point x="431" y="606" type="line"/>
      <point x="712" y="1184" type="line"/>
      <point x="600" y="1184" type="line"/>
      <point x="381" y="714" type="line"/>
      <point x="160" y="1184" type="line"/>
      <point x="48" y="1184" type="line"/>
      <point x="319" y="617" type="line"/>
    </contour>
  </outline>
</glyph>
<glyph name="afii10092" format="1">
  <advance width="904"/>
  <unicode hex="044A"/>
  <outline>
    <contour>
      <point x="254" y="0" type="line"/>
      <point x="452" y="0" type="line" smooth="yes"/>
      <point x="774" y="0"/>
      <point x="834" y="178"/>
      <point x="834" y="347" type="curve" smooth="yes"/>
      <point x="834" y="523"/>
      <point x="777" y="708"/>
      <point x="458" y="708" type="curve" smooth="yes"/>
      <point x="363" y="708" type="line"/>
      <point x="363" y="1184" type="line"/>
      <point x="-2" y="1184" type="line"/>
      <point x="-2" y="1101" type="line"/>
      <point x="254" y="1101" type="line"/>
    </contour>
    <contour>
      <point x="363" y="74" type="line"/>
      <point x="363" y="634" type="line"/>
      <point x="455" y="634" type="line" smooth="yes"/>
      <point x="695" y="633"/>
      <point x="731" y="490"/>
      <point x="731" y="348" type="curve" smooth="yes"/>
      <point x="731" y="202"/>
      <point x="691" y="74"/>
      <point x="452" y="74" type="curve" smooth="yes"/>
    </contour>
  </outline>
</glyph>
<glyph name="afii10093" format="1">
  <advance width="1079"/>
  <unicode hex="044B"/>
  <outline>
    <contour>
      <point x="116" y="0" type="line"/>
      <point x="314" y="0" type="line" smooth="yes"/>
      <point x="636" y="0"/>
      <point x="696" y="178"/>
      <point x="696" y="347" type="curve" smooth="yes"/>
      <point x="696" y="523"/>
      <point x="638" y="707"/>
      <point x="320" y="708" type="curve" smooth="yes"/>
      <point x="318" y="708"/>
      <point x="227" y="708"/>
      <point x="225" y="708" type="curve"/>
      <point x="225" y="1184" type="line"/>
      <point x="116" y="1184" type="line"/>
    </contour>
    <contour>
      <point x="225" y="74" type="line"/>
      <point x="225" y="634" type="line"/>
      <point x="226" y="634"/>
      <point x="316" y="634"/>
      <point x="317" y="634" type="curve" smooth="yes"/>
      <point x="557" y="633"/>
      <point x="593" y="490"/>
      <point x="593" y="348" type="curve" smooth="yes"/>
      <point x="593" y="202"/>
      <point x="552" y="74"/>
      <point x="314" y="74" type="curve" smooth="yes"/>
    </contour>
    <contour>
      <point x="854" y="0" type="line"/>
      <point x="963" y="0" type="line"/>
      <point x="963" y="1184" type="line"/>
      <point x="854" y="1184" type="line"/>
    </contour>
  </outline>
</glyph>
<glyph name="afii10097" format="1">
  <advance width="789"/>
  <unicode hex="044F"/>
  <outline>
    <contour>
      <point x="39" y="0" type="line"/>
      <point x="157" y="0" type="line"/>
      <point x="378" y="494" type="line"/>
      <point x="424" y="486"/>
      <point x="490" y="486"/>
      <point x="564" y="486" type="curve"/>
      <point x="564" y="0" type="line"/>
      <point x="673" y="0" type="line"/>
      <point x="673" y="1184" type="line"/>
      <point x="475" y="1184" type="line" smooth="yes"/>
      <point x="154" y="1184"/>
      <point x="106" y="1008"/>
      <point x="106" y="842" type="curve" smooth="yes"/>
      <point x="106" y="721"/>
      <point x="143" y="574"/>
      <point x="279" y="519" type="curve"/>
    </contour>
    <contour>
      <point x="493" y="560" type="curve"/>
      <point x="288" y="560"/>
      <point x="208" y="650"/>
      <point x="208" y="841" type="curve" smooth="yes"/>
      <point x="208" y="984"/>
      <point x="237" y="1110"/>
      <point x="472" y="1111" type="curve" smooth="yes"/>
      <point x="473" y="1111"/>
      <point x="563" y="1111"/>
      <point x="564" y="1111" type="curve"/>
      <point x="564" y="560" type="line"/>
      <point x="563" y="560"/>
      <point x="495" y="560"/>
    </contour>
  </outline>
</glyph>
<glyph name="afii10099" format="1">
  <advance width="832"/>
  <unicode hex="0452"/>
  <outline>
    <contour>
      <point x="380" y="-247" type="line"/>
      <point x="429" y="-247" type="line" smooth="yes"/>
      <point x="708" y="-247"/>
      <point x="723" y="-89"/>
      <point x="723" y="206" type="curve" smooth="yes"/>
      <point x="723" y="778" type="line" smooth="yes"/>
      <point x="723" y="935"/>
      <point x="620" y="993"/>
      <point x="507" y="993" type="curve" smooth="yes"/>
      <point x="389" y="993"/>
      <point x="297" y="946"/>
      <point x="246" y="903" type="curve"/>
      <point x="246" y="1658" type="line"/>
      <point x="137" y="1658" type="line"/>
      <point x="137" y="0" type="line"/>
      <point x="246" y="0" type="line" smooth="yes"/>
      <point x="246" y="831" type="line"/>
      <point x="304" y="886"/>
      <point x="392" y="921"/>
      <point x="480" y="921" type="curve" smooth="yes"/>
      <point x="556" y="921"/>
      <point x="614" y="888"/>
      <point x="614" y="768" type="curve" smooth="yes"/>
      <point x="614" y="193" type="line" smooth="yes"/>
      <point x="614" y="-72"/>
      <point x="602" y="-167"/>
      <point x="417" y="-167" type="curve" smooth="yes"/>
      <point x="380" y="-167" type="line"/>
    </contour>
    <contour>
      <point x="-8" y="1281" type="line"/>
      <point x="501" y="1281" type="line"/>
      <point x="501" y="1351" type="line"/>
      <point x="-8" y="1351" type="line"/>
    </contour>
  </outline>
</glyph>
<glyph name="afii10101" format="1">
  <advance width="770"/>
  <unicode hex="0454"/>
  <outline>
    <contour>
      <point x="394" y="-19" type="curve" smooth="yes"/>
      <point x="653" y="-19"/>
      <point x="683" y="155"/>
      <point x="683" y="392" type="curve" smooth="yes"/>
      <point x="683" y="417" type="line"/>
      <point x="580" y="417" type="line"/>
      <point x="580" y="389" type="line" smooth="yes"/>
      <point x="580" y="155"/>
      <point x="555" y="63"/>
      <point x="395" y="63" type="curve" smooth="yes"/>
      <point x="240" y="63"/>
      <point x="203" y="171"/>
      <point x="203" y="429" type="curve" smooth="yes"/>
      <point x="203" y="562" type="line"/>
      <point x="515" y="562" type="line"/>
      <point x="515" y="640" type="line"/>
      <point x="203" y="640" type="line"/>
      <point x="203" y="736" type="line" smooth="yes"/>
      <point x="203" y="1016"/>
      <point x="234" y="1121"/>
      <point x="394" y="1121" type="curve" smooth="yes"/>
      <point x="525" y="1121"/>
      <point x="580" y="1066"/>
      <point x="580" y="828" type="curve" smooth="yes"/>
      <point x="580" y="799" type="line"/>
      <point x="683" y="799" type="line"/>
      <point x="683" y="829" type="line" smooth="yes"/>
      <point x="683" y="1045"/>
      <point x="640" y="1203"/>
      <point x="393" y="1203" type="curve" smooth="yes"/>
      <point x="162" y="1203"/>
      <point x="94" y="1071"/>
      <point x="94" y="723" type="curve" smooth="yes"/>
      <point x="94" y="445" type="line" smooth="yes"/>
      <point x="94" y="187"/>
      <point x="128" y="-19"/>
    </contour>
  </outline>
</glyph>
<glyph name="afii10107" format="1">
  <advance width="1186"/>
  <unicode hex="045A"/>
  <outline>
    <contour>
      <point x="116" y="0" type="line"/>
      <point x="225" y="0" type="line"/>
      <point x="225" y="568" type="line"/>
      <point x="592" y="568" type="line"/>
      <point x="592" y="0" type="line"/>
      <point x="785" y="0" type="line" smooth="yes"/>
      <point x="1101" y="1"/>
      <point x="1138" y="151"/>
      <point x="1138" y="317" type="curve" smooth="yes"/>
      <point x="1138" y="491"/>
      <point x="1104" y="644"/>
      <point x="790" y="645" type="curve" smooth="yes"/>
      <point x="789" y="645"/>
      <point x="703" y="645"/>
      <point x="701" y="645" type="curve"/>
      <point x="701" y="1184" type="line"/>
      <point x="592" y="1184" type="line"/>
      <point x="592" y="648" type="line"/>
      <point x="225" y="648" type="line"/>
      <point x="225" y="1184" type="line"/>
      <point x="116" y="1184" type="line"/>
    </contour>
    <contour>
      <point x="701" y="74" type="curve"/>
      <point x="701" y="571" type="line"/>
      <point x="702" y="571"/>
      <point x="787" y="571"/>
      <point x="788" y="571" type="curve" smooth="yes"/>
      <point x="1021" y="569"/>
      <point x="1036" y="458"/>
      <point x="1036" y="318" type="curve" smooth="yes"/>
      <point x="1036" y="176"/>
      <point x="1018" y="76"/>
      <point x="788" y="74" type="curve" smooth="yes"/>
      <point x="787" y="74"/>
      <point x="702" y="74"/>
    </contour>
  </outline>
</glyph>
<glyph name="product" format="1">
  <advance width="1148"/>
  <unicode hex="220F"/>
  <outline>
    <contour>
      <point x="152" y="-390" type="line"/>
      <point x="261" y="-390" type="line"/>
      <point x="261" y="1573" type="line"/>
      <point x="887" y="1573" type="line"/>
      <point x="887" y="-390" type="line"/>
      <point x="997" y="-390" type="line"/>
      <point x="997" y="1658" type="line"/>
      <point x="152" y="1658" type="line"/>
    </contour>
  </outline>
</glyph>
<glyph name="radical" format="1">
  <advance width="949"/>
  <unicode hex="221A"/>
  <outline>
    <contour>
      <point x="430" y="0" type="line"/>
      <point x="551" y="0" type="line"/>
      <point x="924" y="1658" type="line"/>
      <point x="812" y="1658" type="line"/>
      <point x="768" y="1466"/>
      <point x="678" y="1028"/>
      <point x="635" y="835" type="curve"/>
      <point x="592" y="643"/>
      <point x="533" y="355"/>
      <point x="491" y="161" type="curve"/>
      <point x="460" y="296"/>
      <point x="413" y="525"/>
      <point x="381" y="659" type="curve"/>
      <point x="350" y="794"/>
      <point x="295" y="1051"/>
      <point x="262" y="1184" type="curve"/>
      <point x="-9" y="1184" type="line"/>
      <point x="-9" y="1106" type="line"/>
      <point x="169" y="1107" type="line"/>
    </contour>
  </outline>
</glyph>
<glyph name="approxequal" format="1">
  <advance width="802"/>
  <unicode hex="2248"/>
  <outline>
    <contour>
      <point x="536" y="572" type="curve" smooth="yes"/>
      <point x="589" y="572"/>
      <point x="648" y="617"/>
      <point x="710" y="679" type="curve"/>
      <point x="670" y="728" type="line"/>
      <point x="607" y="679"/>
      <point x="578" y="656"/>
      <point x="539" y="656" type="curve" smooth="yes"/>
      <point x="478" y="656"/>
      <point x="350" y="765"/>
      <point x="274" y="765" type="curve" smooth="yes"/>
      <point x="219" y="765"/>
      <point x="155" y="719"/>
      <point x="92" y="648" type="curve"/>
      <point x="133" y="599" type="line"/>
      <point x="196" y="659"/>
      <point x="240" y="683"/>
      <point x="268" y="683" type="curve" smooth="yes"/>
      <point x="332" y="683"/>
      <point x="458" y="572"/>
    </contour>
    <contour>
      <point x="536" y="844" type="curve" smooth="yes"/>
      <point x="589" y="844"/>
      <point x="648" y="890"/>
      <point x="710" y="951" type="curve"/>
      <point x="670" y="1001" type="line"/>
      <point x="607" y="951"/>
      <point x="578" y="928"/>
      <point x="539" y="928" type="curve" smooth="yes"/>
      <point x="478" y="928"/>
      <point x="350" y="1038"/>
      <point x="274" y="1038" type="curve" smooth="yes"/>
      <point x="219" y="1038"/>
      <point x="155" y="991"/>
      <point x="92" y="921" type="curve"/>
      <point x="133" y="871" type="line"/>
      <point x="196" y="932"/>
      <point x="240" y="956"/>
      <point x="268" y="956" type="curve" smooth="yes"/>
      <point x="332" y="956"/>
      <point x="458" y="844"/>
    </contour>
  </outline>
</glyph>
<glyph name="lozenge" format="1">
  <advance width="845"/>
  <unicode hex="25CA"/>
  <outline>
    <contour>
      <point x="395" y="0" type="line"/>
      <point x="464" y="0" type="line"/>
      <point x="761" y="592" type="line"/>
      <point x="450" y="1184" type="line"/>
      <point x="381" y="1184" type="line"/>
      <point x="84" y="592" type="line"/>
    </contour>
    <contour>
      <point x="428" y="78" type="line"/>
      <point x="172" y="592" type="line"/>
      <point x="417" y="1102" type="line"/>
      <point x="675" y="592" type="line"/>
    </contour>
  </outline>
</glyph>
<glyph name="uniFB03" format="1">
  <advance width="1396"/>
  <unicode hex="FB03"/>
  <outline>
    <contour>
      <point x="1142" y="1339" type="line"/>
      <point x="1251" y="1339" type="line"/>
      <point x="1251" y="1528" type="line"/>
      <point x="1142" y="1528" type="line"/>
    </contour>
    <contour>
      <point x="195" y="0" type="line"/>
      <point x="303" y="0" type="line"/>
      <point x="303" y="1107" type="line"/>
      <point x="672" y="1107" type="line"/>
      <point x="672" y="0" type="line"/>
      <point x="780" y="0" type="line"/>
      <point x="780" y="1107" type="line"/>
      <point x="1142" y="1107" type="line"/>
      <point x="1142" y="0" type="line"/>
      <point x="1251" y="0" type="line"/>
      <point x="1251" y="1184" type="line"/>
      <point x="780" y="1184" type="line"/>
      <point x="780" y="1346" type="line" smooth="yes"/>
      <point x="780" y="1475"/>
      <point x="794" y="1527"/>
      <point x="886" y="1527" type="curve" smooth="yes"/>
      <point x="912" y="1527"/>
      <point x="946" y="1520"/>
      <point x="973" y="1515" type="curve"/>
      <point x="973" y="1598" type="line"/>
      <point x="940" y="1607"/>
      <point x="899" y="1612"/>
      <point x="864" y="1612" type="curve" smooth="yes"/>
      <point x="685" y="1612"/>
      <point x="672" y="1494"/>
      <point x="672" y="1344" type="curve" smooth="yes"/>
      <point x="672" y="1184" type="line"/>
      <point x="303" y="1184" type="line"/>
      <point x="303" y="1346" type="line" smooth="yes"/>
      <point x="303" y="1475"/>
      <point x="317" y="1527"/>
      <point x="409" y="1527" type="curve" smooth="yes"/>
      <point x="435" y="1527"/>
      <point x="469" y="1520"/>
      <point x="496" y="1515" type="curve"/>
      <point x="496" y="1598" type="line"/>
      <point x="463" y="1607"/>
      <point x="422" y="1612"/>
      <point x="387" y="1612" type="curve" smooth="yes"/>
      <point x="208" y="1612"/>
      <point x="195" y="1494"/>
      <point x="195" y="1344" type="curve" smooth="yes"/>
      <point x="195" y="1184" type="line"/>
      <point x="35" y="1184" type="line"/>
      <point x="35" y="1107" type="line"/>
      <point x="195" y="1107" type="line"/>
    </contour>
  </outline>
</glyph>
<glyph name="foundryicon" format="1">
  <advance width="1481"/>
  <outline>
    <contour>
      <point x="285" y="272" type="line"/>
      <point x="735" y="592" type="line"/>
      <point x="1195" y="272" type="line"/>
      <point x="1029" y="803" type="line"/>
      <point x="1481" y="1145" type="line"/>
      <point x="920" y="1145" type="line"/>
      <point x="735" y="1677" type="line"/>
      <point x="561" y="1145" type="line"/>
      <point x="0" y="1145" type="line"/>
      <point x="450" y="803" type="line"/>
    </contour>
  </outline>
</glyph>
